<svg xmlns="http://www.w3.org/2000/svg" xmlns:xlink="http://www.w3.org/1999/xlink" width="202" height="358" viewBox="0 0 202 358">
  <defs>
    <clipPath id="clip-path">
      <rect id="Rectángulo_1" data-name="Rectángulo 1" width="202" height="358" rx="26" transform="translate(226 280)" fill="none" stroke="#707070" stroke-width="1"/>
    </clipPath>
  </defs>
  <g id="Enmascarar_grupo_1" data-name="Enmascarar grupo 1" transform="translate(-226 -280)" clip-path="url(#clip-path)">
    <g id="telefono-inteligente" transform="translate(148.089 280.08)">
      <path id="Trazado_1" data-name="Trazado 1" d="M189.544,0H39.277A26.314,26.314,0,0,0,13,26.277v305.36A26.315,26.315,0,0,0,39.277,357.92H189.538a26.315,26.315,0,0,0,26.283-26.277V26.277A26.314,26.314,0,0,0,189.544,0ZM24.931,47.723h178.96V274.405H24.931ZM39.277,11.931H189.538a14.365,14.365,0,0,1,14.353,14.347v9.515H24.931V26.277A14.364,14.364,0,0,1,39.277,11.931ZM189.544,345.989H39.277a14.364,14.364,0,0,1-14.347-14.347V286.336h178.96v45.307A14.364,14.364,0,0,1,189.544,345.989Z" transform="translate(64.544)" fill="#0081f2"/>
      <path id="Trazado_2" data-name="Trazado 2" d="M49.861,49A23.861,23.861,0,1,0,73.723,72.861,23.885,23.885,0,0,0,49.861,49Zm0,35.792A11.931,11.931,0,1,1,61.792,72.861,11.943,11.943,0,0,1,49.861,84.792Z" transform="translate(129.094 243.301)" fill="#0081f2"/>
      <path id="Trazado_3" data-name="Trazado 3" d="M30.965,14.931H54.827A5.965,5.965,0,0,0,54.827,3H30.965a5.965,5.965,0,0,0,0,11.931Z" transform="translate(124.128 14.896)" fill="#0081f2"/>
      <path id="Trazado_4" data-name="Trazado 4" d="M37.965,14.931h5.965A5.965,5.965,0,1,0,43.931,3H37.965a5.965,5.965,0,0,0,0,11.931Z" transform="translate(158.886 14.896)" fill="#0081f2"/>
      <path id="Trazado_5" data-name="Trazado 5" d="M65.089,6.025a5.964,5.964,0,1,0-8.435,8.435,57.232,57.232,0,0,1,0,80.842,5.964,5.964,0,1,0,8.435,8.435A69.171,69.171,0,0,0,65.089,6.025Z" transform="translate(272.615 21.231)" fill="#0081f2"/>
      <path id="Trazado_6" data-name="Trazado 6" d="M60.878,8.3a5.964,5.964,0,0,0-8.435,8.435,39.18,39.18,0,0,1,0,55.34,5.964,5.964,0,1,0,8.435,8.435,51.1,51.1,0,0,0,0-72.21Z" transform="translate(251.706 32.532)" fill="#0081f2"/>
      <path id="Trazado_7" data-name="Trazado 7" d="M28.641,14.46a5.964,5.964,0,0,0-8.435-8.435,69.171,69.171,0,0,0,0,97.712A5.964,5.964,0,0,0,28.641,95.3,57.221,57.221,0,0,1,28.641,14.46Z" transform="translate(0 21.231)" fill="#0081f2"/>
      <path id="Trazado_8" data-name="Trazado 8" d="M28.467,8.025a5.959,5.959,0,0,0-8.435,0,51.1,51.1,0,0,0,0,72.21A5.964,5.964,0,1,0,28.467,71.8a39.18,39.18,0,0,1,0-55.34A5.969,5.969,0,0,0,28.467,8.025Z" transform="translate(25.293 31.161)" fill="#0081f2"/>
    </g>
  </g>
</svg>
