<svg xmlns="http://www.w3.org/2000/svg" width="536.258" height="536.25" viewBox="0 0 536.258 536.25">
  <g id="derecho" transform="translate(0 0.074)">
    <path id="Trazado_1" data-name="Trazado 1" d="M279.629,143.855a12.432,12.432,0,0,0-17.582,17.582L356.211,255.6H106.02a12.473,12.473,0,1,0,0,24.945H356.086l-94.164,94.164a12.42,12.42,0,0,0,0,17.586,12.251,12.251,0,0,0,8.855,3.617,12.778,12.778,0,0,0,8.852-3.617L395,276.934a12.359,12.359,0,0,0,3.621-8.859A12.856,12.856,0,0,0,395,259.223Zm0,0" fill="#00a8e0"/>
    <path id="Trazado_2" data-name="Trazado 2" d="M268.156-.074A268.1,268.1,0,0,0,78.582,457.649c104.7,104.7,274.453,104.7,379.152,0s104.7-274.445,0-379.148A266.441,266.441,0,0,0,268.156-.073Zm0,511.355c-134.074,0-243.2-109.133-243.2-243.207s109.129-243.2,243.2-243.2S511.363,134,511.363,268.074,402.23,511.281,268.156,511.281Zm0,0" fill="#00a8e0"/>
  </g>
</svg>
