<svg xmlns="http://www.w3.org/2000/svg" width="512" height="512" viewBox="0 0 512 512">
  <g id="Grupo_1" data-name="Grupo 1" transform="translate(-171 -124)">
    <circle id="Elipse_1" data-name="Elipse 1" cx="242" cy="242" r="242" transform="translate(191 152)" fill="#fff"/>
    <g id="facebook" transform="translate(171 124)">
      <path id="Trazado_1" data-name="Trazado 1" d="M297.277,508.668q-3.2.521-6.422.961Q294.078,509.189,297.277,508.668Zm0,0" fill="#007eec"/>
      <path id="Trazado_2" data-name="Trazado 2" d="M302.4,507.793c-1.02.188-2.039.359-3.059.535C300.359,508.152,301.378,507.98,302.4,507.793Zm0,0" fill="#007eec"/>
      <path id="Trazado_3" data-name="Trazado 3" d="M285.137,510.34q-3.744.422-7.527.742Q281.389,510.766,285.137,510.34Zm0,0" fill="#007eec"/>
      <path id="Trazado_4" data-name="Trazado 4" d="M290.055,509.738c-1.2.16-2.406.309-3.609.449C287.649,510.047,288.856,509.9,290.055,509.738Zm0,0" fill="#007eec"/>
      <path id="Trazado_5" data-name="Trazado 5" d="M309.367,506.41c-.9.191-1.8.383-2.7.566C307.566,506.793,308.469,506.6,309.367,506.41Zm0,0" fill="#007eec"/>
      <path id="Trazado_6" data-name="Trazado 6" d="M326.664,502.113c-.727.207-1.453.4-2.18.605C325.211,502.515,325.937,502.32,326.664,502.113Zm0,0" fill="#007eec"/>
      <path id="Trazado_7" data-name="Trazado 7" d="M321.434,503.543c-.789.207-1.582.418-2.375.617Q320.248,503.861,321.434,503.543Zm0,0" fill="#007eec"/>
      <path id="Trazado_8" data-name="Trazado 8" d="M314.59,505.254c-.836.2-1.68.379-2.523.566C312.91,505.633,313.754,505.449,314.59,505.254Zm0,0" fill="#007eec"/>
      <path id="Trazado_9" data-name="Trazado 9" d="M277.527,511.09q-2.021.17-4.047.3Q275.507,511.26,277.527,511.09Zm0,0" fill="#007eec"/>
      <path id="Trazado_10" data-name="Trazado 10" d="M512,256C512,114.637,397.363,0,256,0S0,114.637,0,256,114.637,512,256,512c1.5,0,3-.031,4.5-.059V312.656h-55v-64.1h55V201.391c0-54.7,33.395-84.477,82.191-84.477A452.753,452.753,0,0,1,392,119.434v57.172H358.352c-26.547,0-31.687,12.617-31.687,31.129v40.824h63.477l-8.273,64.1h-55.2v189.45C433.668,471.434,512,372.851,512,256Zm0,0" fill="#007eec"/>
      <path id="Trazado_11" data-name="Trazado 11" d="M272.914,511.43q-4,.258-8.023.4Q268.916,511.694,272.914,511.43Zm0,0" fill="#007eec"/>
      <path id="Trazado_12" data-name="Trazado 12" d="M264.754,511.836q-2.121.07-4.25.105Q262.631,511.906,264.754,511.836Zm0,0" fill="#007eec"/>
    </g>
  </g>
</svg>
