<svg xmlns="http://www.w3.org/2000/svg" width="371.139" height="512" viewBox="0 0 371.139 512">
  <g id="Grupo_1" data-name="Grupo 1" transform="translate(-192.861 -140)">
    <g id="Elipse_1" data-name="Elipse 1" transform="translate(310 247)" fill="#fff" stroke="#707070" stroke-width="1">
      <circle cx="74.5" cy="74.5" r="74.5" stroke="none"/>
      <circle cx="74.5" cy="74.5" r="74" fill="none"/>
    </g>
    <g id="marcador-de-posicion" transform="translate(128 140)">
      <g id="Grupo_2" data-name="Grupo 2">
        <g id="Grupo_1-2" data-name="Grupo 1">
          <path id="Trazado_1" data-name="Trazado 1" d="M256,0C156.748,0,76,80.748,76,180a179.618,179.618,0,0,0,26.869,94.652L245.754,504.909A15,15,0,0,0,258.5,512h.119a15,15,0,0,0,12.75-7.292L410.611,272.22A179.786,179.786,0,0,0,436,180C436,80.748,355.252,0,256,0ZM384.866,256.818,258.272,468.186l-129.9-209.34A149.815,149.815,0,0,1,105.8,180c0-82.71,67.49-150.2,150.2-150.2S406.1,97.29,406.1,180a149.869,149.869,0,0,1-21.234,76.818Z" fill="#ff1c1c"/>
        </g>
      </g>
      <g id="Grupo_4" data-name="Grupo 4">
        <g id="Grupo_3" data-name="Grupo 3">
          <path id="Trazado_2" data-name="Trazado 2" d="M256,90a90,90,0,1,0,90,90A90,90,0,0,0,256,90Zm0,150.2A60.2,60.2,0,1,1,316.1,180,60.2,60.2,0,0,1,256,240.2Z" fill="#ff1c1c"/>
        </g>
      </g>
    </g>
    <rect id="Rectángulo_1" data-name="Rectángulo 1" width="93" height="263" transform="translate(458.369 321.833) rotate(31)" fill="#ff1c1c"/>
    <rect id="Rectángulo_2" data-name="Rectángulo 2" width="93" height="263" transform="matrix(-0.829, 0.559, -0.559, -0.829, 446.584, 543.516)" fill="#ff1c1c"/>
    <rect id="Rectángulo_3" data-name="Rectángulo 3" width="97" height="195" rx="47" transform="matrix(0.995, -0.105, 0.105, 0.995, 326.509, 403.581)" fill="#ff1c1c"/>
    <rect id="Rectángulo_4" data-name="Rectángulo 4" width="97" height="177" rx="47" transform="matrix(0.995, -0.105, 0.105, 0.995, 432.391, 217.482)" fill="#ff1c1c"/>
    <rect id="Rectángulo_5" data-name="Rectángulo 5" width="97" height="177" rx="47" transform="translate(241.649 196.988) rotate(16)" fill="#ff1c1c"/>
    <rect id="Rectángulo_6" data-name="Rectángulo 6" width="97" height="177" rx="47" transform="translate(437.197 140.263) rotate(77)" fill="#ff1c1c"/>
    <rect id="Rectángulo_7" data-name="Rectángulo 7" width="97" height="140" rx="48.5" transform="matrix(-0.407, 0.914, -0.914, -0.407, 526.65, 207.068)" fill="#ff1c1c"/>
    <rect id="Rectángulo_8" data-name="Rectángulo 8" width="60" height="140" rx="30" transform="translate(420.25 612.355) rotate(-179)" fill="#ff1c1c"/>
  </g>
</svg>
