<svg xmlns="http://www.w3.org/2000/svg" width="512.001" height="511.986" viewBox="0 0 512.001 511.986">
  <g id="telefono" transform="translate(0 -0.008)">
    <g id="Grupo_1" data-name="Grupo 1">
      <path id="Trazado_1" data-name="Trazado 1" d="M467.013,466.922a14.947,14.947,0,0,1-10.608-4.395L350.319,356.441a15,15,0,0,1,21.217-21.217L477.622,441.31a15,15,0,0,1-10.609,25.612Z" fill="#00a8e0"/>
      <path id="Trazado_2" data-name="Trazado 2" d="M166.086,165.89a14.951,14.951,0,0,1-10.608-4.394L49.391,55.409A15,15,0,1,1,70.608,34.192L176.694,140.278a15,15,0,0,1-10.608,25.612Z" fill="#00a8e0"/>
    </g>
    <path id="Trazado_3" data-name="Trazado 3" d="M360.928,511.994a161.237,161.237,0,0,1-114.766-47.538L47.46,265.65c-63.28-63.279-63.28-166.246,0-229.529L70.655,13.129a45.046,45.046,0,0,1,63.6.046L197.895,76.61a45.007,45.007,0,0,1,.017,63.668L168.98,169.21a34.1,34.1,0,0,0,0,48.222L294.387,342.945a34.14,34.14,0,0,0,48.217-.005l28.932-28.932a45.06,45.06,0,0,1,63.652,0L498.84,377.66a45.06,45.06,0,0,1,0,63.651l-23.147,23.146A161.24,161.24,0,0,1,360.928,511.994ZM102.428,30.008a14.947,14.947,0,0,0-10.6,4.385L68.634,57.384C17.1,108.922,17.1,192.853,68.68,244.435l198.7,198.807a132.3,132.3,0,0,0,187.1,0l23.146-23.146a15.021,15.021,0,0,0,0-21.217l-63.652-63.652a15.021,15.021,0,0,0-21.218,0l-28.932,28.932a64.1,64.1,0,0,1-90.656,0l0,0-125.4-125.508a64.1,64.1,0,0,1,0-90.652L176.7,119.06a15,15,0,0,0,0-21.217L113.06,34.408A15,15,0,0,0,102.428,30.008Z" fill="#00a8e0"/>
  </g>
</svg>
