<svg xmlns="http://www.w3.org/2000/svg" width="517.412" height="526.591" viewBox="0 0 517.412 526.591">
  <g id="Grupo_1" data-name="Grupo 1" transform="translate(-200.589 -123)">
    <ellipse id="Elipse_2" data-name="Elipse 2" cx="73.5" cy="69" rx="73.5" ry="69" transform="matrix(0.53, 0.848, -0.848, 0.53, 582.158, 451.799)" fill="#ff8208"/>
    <ellipse id="Elipse_1" data-name="Elipse 1" cx="70" cy="43.5" rx="70" ry="43.5" transform="translate(231.767 229.535) rotate(21)" fill="#ff8208"/>
    <rect id="Rectángulo_1" data-name="Rectángulo 1" width="144" height="157" rx="40" transform="translate(428.139 234.797) rotate(132)" fill="#ff8208"/>
    <rect id="Rectángulo_2" data-name="Rectángulo 2" width="134" height="144" rx="30" transform="translate(717.842 523.177) rotate(132)" fill="#ff8208"/>
    <rect id="Rectángulo_3" data-name="Rectángulo 3" width="406" height="82" transform="translate(279.449 268.466) rotate(45)" fill="#ff8208"/>
    <g id="telefono" transform="translate(206 122.989)">
      <g id="Grupo_1-2" data-name="Grupo 1">
        <path id="Trazado_1" data-name="Trazado 1" d="M467.013,466.922a14.947,14.947,0,0,1-10.608-4.395L350.319,356.441a15,15,0,1,1,21.217-21.217L477.622,441.31a15,15,0,0,1-10.609,25.612Z" fill="#ff8208"/>
        <path id="Trazado_2" data-name="Trazado 2" d="M166.086,165.89a14.951,14.951,0,0,1-10.608-4.394L49.391,55.409A15,15,0,1,1,70.608,34.192L176.694,140.278a15,15,0,0,1-10.608,25.612Z" fill="#ff8208"/>
      </g>
      <path id="Trazado_3" data-name="Trazado 3" d="M360.928,511.994a161.237,161.237,0,0,1-114.766-47.538L47.46,265.65c-63.28-63.279-63.28-166.246,0-229.529L70.655,13.129a45.046,45.046,0,0,1,63.6.046L197.9,76.61a45.007,45.007,0,0,1,.017,63.668L168.98,169.21a34.1,34.1,0,0,0,0,48.222L294.387,342.945a34.14,34.14,0,0,0,48.217-.005l28.932-28.932a45.06,45.06,0,0,1,63.652,0L498.84,377.66a45.06,45.06,0,0,1,0,63.651l-23.147,23.146a161.24,161.24,0,0,1-114.765,47.537ZM102.428,30.008a14.947,14.947,0,0,0-10.6,4.385L68.634,57.384C17.1,108.922,17.1,192.853,68.68,244.435l198.7,198.807a132.3,132.3,0,0,0,187.1,0L477.626,420.1a15.021,15.021,0,0,0,0-21.217l-63.652-63.652a15.021,15.021,0,0,0-21.218,0l-28.932,28.932a64.1,64.1,0,0,1-90.656,0h0l-125.4-125.508a64.1,64.1,0,0,1,0-90.652L176.7,119.06a15,15,0,0,0,0-21.217L113.06,34.408A15,15,0,0,0,102.428,30.008Z" fill="#ff8208"/>
    </g>
    <line id="Línea_1" data-name="Línea 1" x2="128" y2="127" transform="translate(256.5 157.5)" fill="none" stroke="#000" stroke-width="30"/>
    <line id="Línea_2" data-name="Línea 2" x2="128" y2="129" transform="translate(556.5 457.5)" fill="none" stroke="#000" stroke-width="30"/>
  </g>
</svg>
