<?xml version="1.0" encoding="iso-8859-1"?>
<!-- Generator: Adobe Illustrator 19.0.0, SVG Export Plug-In . SVG Version: 6.00 Build 0)  -->
<svg version="1.1" id="Capa_1" xmlns="http://www.w3.org/2000/svg" xmlns:xlink="http://www.w3.org/1999/xlink" x="0px" y="0px"
	 viewBox="0 0 512.001 512.001" style="enable-background:new 0 0 512.001 512.001;" xml:space="preserve">
<g>
	<path style="fill:#136EF1;" d="M467.013,466.922c-3.84,0-7.679-1.464-10.608-4.395L350.319,356.441
		c-5.859-5.859-5.859-15.358,0-21.217c5.858-5.859,15.358-5.859,21.217,0L477.622,441.31c5.859,5.859,5.859,15.358,0,21.217
		C474.693,465.457,470.853,466.922,467.013,466.922z"/>
	<path style="fill:#136EF1;" d="M166.086,165.89c-3.84,0-7.679-1.464-10.608-4.394L49.391,55.409
		c-5.859-5.859-5.859-15.358,0-21.217c5.858-5.858,15.358-5.858,21.217,0l106.086,106.086c5.859,5.859,5.859,15.358,0,21.217
		C173.766,164.425,169.926,165.89,166.086,165.89z"/>
</g>
<path style="fill:#17ACE8;" d="M360.928,511.994c-43.353,0-84.111-16.882-114.766-47.538L47.46,265.65
	c-63.28-63.279-63.28-166.246,0.003-229.529l23.192-22.992c17.503-17.502,46.057-17.502,63.605,0.046l63.635,63.435
	c8.518,8.518,13.2,19.82,13.2,31.842s-4.682,23.325-13.183,31.826L168.98,169.21c-6.44,6.44-9.987,15.003-9.987,24.111
	c0,9.108,3.547,17.67,9.987,24.111l125.407,125.513c13.29,13.285,34.924,13.289,48.217-0.005l28.932-28.932
	c17.548-17.548,46.103-17.549,63.652,0l63.652,63.652c17.548,17.548,17.548,46.102,0,63.651l-23.147,23.146
	C445.038,495.112,404.28,511.994,360.928,511.994z M102.428,30.008c-3.842,0-7.679,1.462-10.603,4.385L68.634,57.384
	c-51.537,51.538-51.537,135.469,0.046,187.051l198.702,198.807c24.985,24.985,58.208,38.746,93.546,38.746
	s68.561-13.762,93.549-38.749l23.146-23.146c5.849-5.85,5.849-15.368,0-21.217l-63.652-63.652c-5.85-5.85-15.368-5.849-21.218,0
	l-28.932,28.932c-12.107,12.107-28.205,18.776-45.328,18.776c-17.123,0-33.22-6.668-45.328-18.776
	c-0.001-0.001-0.003-0.003-0.004-0.004L147.759,238.644c-12.103-12.103-18.772-28.2-18.772-45.324s6.668-33.22,18.776-45.328
	l28.932-28.932c2.834-2.834,4.394-6.601,4.394-10.609c0-4.008-1.56-7.774-4.394-10.608L113.06,34.408
	C110.124,31.474,106.275,30.008,102.428,30.008z"/>
<g>
</g>
<g>
</g>
<g>
</g>
<g>
</g>
<g>
</g>
<g>
</g>
<g>
</g>
<g>
</g>
<g>
</g>
<g>
</g>
<g>
</g>
<g>
</g>
<g>
</g>
<g>
</g>
<g>
</g>
</svg>
