<svg xmlns="http://www.w3.org/2000/svg" width="506.964" height="506.964" viewBox="0 0 506.964 506.964">
  <g id="whatsapp" transform="translate(2 1)">
    <g id="Grupo_2" data-name="Grupo 2">
      <g id="Grupo_1" data-name="Grupo 1">
        <path id="Trazado_1" data-name="Trazado 1" d="M252.321-1C113.83-1,1.357,111.472,1.357,249.125c0,43.646,11.751,85.613,33.574,124.223L-2,505.964l135.134-36.092c39.449,20.984,80.577,32.734,119.187,32.734,136.813,0,252.643-115.83,252.643-253.482S391.652-1,252.321-1Zm0,486.82c-36.931,0-76.38-11.751-114.151-32.734l-3.357-1.679L21.5,482.462,52.557,370.83l-1.679-3.357c-20.984-36.092-32.734-77.22-32.734-118.348,0-128.42,104.918-233.338,234.177-233.338,130.1,0,235.856,104.918,235.856,233.338S379.9,485.82,252.321,485.82Z" fill="#05d621"/>
        <path id="Trazado_2" data-name="Trazado 2" d="M252.321,40.967c-114.99,0-209,93.167-209,208.157,0,41.128,11.751,79.738,32.734,114.151l3.357,4.2L56.754,447.21l82.256-20.984,4.2,2.518c34.413,20.984,72.184,31.895,109.115,31.895C368.152,460.639,463,365.793,463,249.124,463,134.134,368.151,40.967,252.321,40.967Zm-.839,403.725c-33.574,0-67.987-10.911-99.882-30.216l-10.072-6.715L80.256,422.869l16.787-58.754L90.328,353.2c-20.144-31.056-30.216-67.148-30.216-104.079,0-104.918,86.452-191.37,192.21-191.37,106.6,0,193.889,86.452,193.889,191.37,0,107.44-87.293,194.731-194.729,195.571Z" fill="#05d621"/>
        <path id="Trazado_3" data-name="Trazado 3" d="M378.223,295.289l-52.879-24.341c-7.554-3.357-15.108-.839-20.144,5.036L285.056,302c-15.108-5.875-57.075-24.341-81.416-69.666l18.466-21.823a16.886,16.886,0,0,0,2.518-17.626l-22.662-53.718c-2.518-5.875-7.554-10.072-14.269-10.072l-15.948-.839c-6.715,0-14.269,1.679-19.305,6.715-7.554,6.715-21.823,20.984-26.02,40.289-5.875,27.7,3.357,60.433,26.859,92.328,14.269,20.144,57.915,79.738,141.849,103.239a84.905,84.905,0,0,0,24.341,3.357,79.514,79.514,0,0,0,39.449-10.911c13.43-8.393,22.662-22.662,26.02-37.771l2.518-11.751C389.134,306.2,384.938,298.646,378.223,295.289Zm-10.912,26.019c-2.518,10.911-9.233,20.984-18.466,26.859-14.269,9.233-31.056,10.911-49.521,5.875-78.059-21.823-119.187-78.059-132.616-96.525-20.144-27.7-28.538-56.236-23.5-78.9,3.357-15.108,14.269-26.02,20.984-31.9a9.531,9.531,0,0,1,6.715-2.518l16.787,1.679,22.662,52.879L190.21,221.426a15.564,15.564,0,0,0-1.679,15.948c27.7,53.718,78.059,74.7,93.167,79.738a14.787,14.787,0,0,0,15.948-5.036l20.144-26.859,52.879,24.341Z" fill="#05d621"/>
      </g>
    </g>
  </g>
</svg>
